<svg width="32" height="33" viewBox="0 0 32 33" fill="none" xmlns="http://www.w3.org/2000/svg">
<mask id="path-1-inside-1_152_2926" fill="white">
<path fill-rule="evenodd" clip-rule="evenodd" d="M0 4.75623V28.7562L3.99768 32.7539H28.0023L32 28.7562V4.75623L28 0.756226L28.0023 0.753906H3.99768L4 0.756226L0 4.75623Z"/>
</mask>
<path fill-rule="evenodd" clip-rule="evenodd" d="M0 4.75623V28.7562L3.99768 32.7539H28.0023L32 28.7562V4.75623L28 0.756226L28.0023 0.753906H3.99768L4 0.756226L0 4.75623Z" fill="white"/>
<path d="M0 4.75623L-0.707107 4.04912L-1 4.34201V4.75623H0ZM0 28.7562H-1V29.1704L-0.707107 29.4633L0 28.7562ZM3.99768 32.7539L3.29057 33.461L3.58347 33.7539H3.99768V32.7539ZM28.0023 32.7539V33.7539H28.4165L28.7094 33.461L28.0023 32.7539ZM32 28.7562L32.7071 29.4633L33 29.1704V28.7562H32ZM32 4.75623H33V4.34201L32.7071 4.04912L32 4.75623ZM28 0.756226L27.2929 0.0491188L26.5858 0.756226L27.2929 1.46333L28 0.756226ZM28.0023 0.753906L28.7094 1.46101L30.4165 -0.246094H28.0023V0.753906ZM3.99768 0.753906V-0.246094H1.58347L3.29057 1.46101L3.99768 0.753906ZM4 0.756226L4.70711 1.46333L5.41421 0.756226L4.70711 0.0491188L4 0.756226ZM-1 4.75623V28.7562H1V4.75623H-1ZM-0.707107 29.4633L3.29057 33.461L4.70479 32.0468L0.707107 28.0491L-0.707107 29.4633ZM3.99768 33.7539H28.0023V31.7539H3.99768V33.7539ZM28.7094 33.461L32.7071 29.4633L31.2929 28.0491L27.2952 32.0468L28.7094 33.461ZM33 28.7562V4.75623H31V28.7562H33ZM32.7071 4.04912L28.7071 0.0491188L27.2929 1.46333L31.2929 5.46333L32.7071 4.04912ZM28.7071 1.46333L28.7094 1.46101L27.2952 0.0467995L27.2929 0.0491188L28.7071 1.46333ZM28.0023 -0.246094H3.99768V1.75391H28.0023V-0.246094ZM3.29057 1.46101L3.29289 1.46333L4.70711 0.0491188L4.70479 0.0467995L3.29057 1.46101ZM3.29289 0.0491188L-0.707107 4.04912L0.707107 5.46333L4.70711 1.46333L3.29289 0.0491188Z" fill="#FCDDEC" mask="url(#path-1-inside-1_152_2926)"/>
<path fill-rule="evenodd" clip-rule="evenodd" d="M20.1305 9.02826C20.4234 9.32116 20.4234 9.79603 20.1305 10.0889L13.4608 16.7586L20.1305 23.4283C20.4234 23.7212 20.4234 24.196 20.1305 24.4889C19.8376 24.7818 19.3627 24.7818 19.0698 24.4889L11.8698 17.2889C11.7292 17.1483 11.6501 16.9575 11.6501 16.7586C11.6501 16.5597 11.7292 16.3689 11.8698 16.2283L19.0698 9.02826C19.3627 8.73537 19.8376 8.73537 20.1305 9.02826Z" fill="#FCDDEC"/>
</svg>
